<svg xmlns="http://www.w3.org/2000/svg" xmlns:xlink="http://www.w3.org/1999/xlink" viewBox="0 0 520.33 102.14"><defs><style>.cls-1{fill:#fff;}.cls-2{fill:url(#linear-gradient);}.cls-3{fill:url(#linear-gradient-2);}.cls-4{fill:url(#linear-gradient-3);}</style><linearGradient id="linear-gradient" x1="21.35" y1="36.31" x2="62.94" y2="36.31" gradientUnits="userSpaceOnUse"><stop offset="0" stop-color="#c0c80e"/><stop offset="0.45" stop-color="#90b424"/><stop offset="0.46" stop-color="#8eb324"/><stop offset="0.83" stop-color="#36952d"/><stop offset="1" stop-color="#138931"/></linearGradient><linearGradient id="linear-gradient-2" x1="57.08" y1="50.82" x2="80.56" y2="50.82" xlink:href="#linear-gradient"/><linearGradient id="linear-gradient-3" x1="23.11" y1="67.42" x2="64.11" y2="67.42" xlink:href="#linear-gradient"/></defs><title>Asset 1</title><g id="Layer_2" data-name="Layer 2"><g id="Camada_1" data-name="Camada 1"><circle id="_Path_" data-name="&lt;Path&gt;" class="cls-1" cx="51.07" cy="51.07" r="51.07"/><g id="_Group_" data-name="&lt;Group&gt;"><path id="_Path_2" data-name="&lt;Path&gt;" class="cls-2" d="M31.22,51.08a20.5,20.5,0,0,1,18.7-20.42V33l13-7.45L50,18v2.66a30.48,30.48,0,0,0-28.6,27.83l10.17,6.14A20.63,20.63,0,0,1,31.22,51.08Z"/><path id="_Path_3" data-name="&lt;Path&gt;" class="cls-3" d="M67.48,27.09l-10.4,5.75A20.51,20.51,0,0,1,68.69,60.73l-2-1.18,0,15,13-7.47-2.3-1.33A30.48,30.48,0,0,0,67.48,27.09Z"/><path id="_Path_4" data-name="&lt;Path&gt;" class="cls-4" d="M34.35,62.3l2.09-1.08L23.79,53.12l-.69,15,2.36-1.22A30.48,30.48,0,0,0,63.38,79.34l.73-11.86A20.51,20.51,0,0,1,34.35,62.3Z"/></g><path class="cls-1" d="M137.72,84.85a5.71,5.71,0,0,0,2.89.81c1.65,0,2.61-.87,2.61-2.13s-.67-1.83-2.35-2.48c-2-.72-3.3-1.78-3.3-3.54,0-1.95,1.61-3.39,4-3.39a5.67,5.67,0,0,1,2.76.61l-.44,1.31a5,5,0,0,0-2.37-.59c-1.71,0-2.35,1-2.35,1.87,0,1.17.76,1.74,2.48,2.41,2.11.82,3.19,1.83,3.19,3.67S143.44,87,140.5,87a6.44,6.44,0,0,1-3.19-.8Z"/><path class="cls-1" d="M167,80.44c0,4.3-2.61,6.58-5.8,6.58s-5.61-2.56-5.61-6.33c0-4,2.46-6.56,5.8-6.56S167,76.74,167,80.44Zm-9.69.2c0,2.67,1.45,5.06,4,5.06s4-2.35,4-5.19c0-2.48-1.3-5.08-4-5.08S157.32,77.9,157.32,80.65Z"/><path class="cls-1" d="M178.36,74.33H180V85.46h5.33v1.35h-6.95Z"/><path class="cls-1" d="M197.31,74.33v7.39c0,2.8,1.24,4,2.91,4,1.85,0,3-1.22,3-4V74.33h1.63v7.28c0,3.83-2,5.41-4.72,5.41s-4.48-1.46-4.48-5.33V74.33Z"/><path class="cls-1" d="M225.67,86.41a7.91,7.91,0,0,1-3.28.59l-.43.74a1.47,1.47,0,0,1,1.3,1.39c0,1.08-.94,1.5-1.91,1.5a2.81,2.81,0,0,1-1.32-.32l.26-.83a2.21,2.21,0,0,0,1,.24c.43,0,.78-.17.78-.56s-.57-.7-1.45-.8l.78-1.43c-3.06-.37-5.24-2.54-5.24-6.26a6.21,6.21,0,0,1,6.52-6.56,6.69,6.69,0,0,1,3,.56L225.3,76a5.88,5.88,0,0,0-2.52-.52c-2.93,0-4.87,1.87-4.87,5.15,0,3.06,1.76,5,4.8,5a6.44,6.44,0,0,0,2.63-.52Z"/><path class="cls-1" d="M247.23,80.44c0,4.3-2.61,6.58-5.8,6.58s-5.61-2.56-5.61-6.33c0-4,2.46-6.56,5.8-6.56S247.23,76.74,247.23,80.44Zm-9.69.2c0,2.67,1.45,5.06,4,5.06s4-2.35,4-5.19c0-2.48-1.3-5.08-4-5.08S237.55,77.9,237.55,80.65Zm1.69-7.11c0-1.13.44-1.89,1.26-1.89a2.09,2.09,0,0,1,1.09.37,2,2,0,0,0,.89.33c.28,0,.44-.13.5-.72h.85c0,1.17-.39,1.8-1.24,1.8a2.5,2.5,0,0,1-1.13-.35,2.15,2.15,0,0,0-.87-.35c-.3,0-.44.31-.48.82Z"/><path class="cls-1" d="M265.05,81H260.2v4.5h5.41v1.35h-7V74.33h6.74v1.35H260.2v3.95h4.85Z"/><path class="cls-1" d="M276.74,84.85a5.71,5.71,0,0,0,2.89.81c1.65,0,2.61-.87,2.61-2.13s-.67-1.83-2.35-2.48c-2-.72-3.3-1.78-3.3-3.54,0-1.95,1.61-3.39,4-3.39a5.67,5.67,0,0,1,2.76.61l-.45,1.31a5,5,0,0,0-2.37-.59c-1.71,0-2.35,1-2.35,1.87,0,1.17.76,1.74,2.48,2.41,2.11.82,3.19,1.83,3.19,3.67S282.46,87,279.52,87a6.45,6.45,0,0,1-3.19-.8Z"/><path class="cls-1" d="M310.16,74.33V86.81h-1.61V74.33Z"/><path class="cls-1" d="M322.24,86.81V74.33H324l4,6.32a35.51,35.51,0,0,1,2.24,4.06l0,0c-.15-1.67-.19-3.19-.19-5.13V74.33h1.52V86.81H330l-4-6.33a40.1,40.1,0,0,1-2.33-4.17l-.05,0c.09,1.57.13,3.08.13,5.15v5.33Z"/><path class="cls-1" d="M346.06,75.7h-3.8V74.33h9.24V75.7h-3.81V86.81h-1.63Z"/><path class="cls-1" d="M368.62,81h-4.85v4.5h5.41v1.35h-7V74.33h6.74v1.35h-5.13v3.95h4.85Z"/><path class="cls-1" d="M380.53,74.33h1.61V85.46h5.34v1.35h-6.95Z"/><path class="cls-1" d="M400.15,74.33V86.81h-1.61V74.33Z"/><path class="cls-1" d="M421.73,86.26a11.62,11.62,0,0,1-3.83.69,5.86,5.86,0,0,1-6.41-6.3c0-3.72,2.58-6.45,6.76-6.45a7.71,7.71,0,0,1,3.11.57L421,76.09a6.47,6.47,0,0,0-2.76-.54,4.67,4.67,0,0,0-5,5c0,3.17,1.91,5,4.82,5a5.26,5.26,0,0,0,2.15-.33V81.55h-2.54v-1.3h4.11Z"/><path class="cls-1" d="M439.92,81h-4.85v4.5h5.41v1.35h-7V74.33h6.74v1.35h-5.13v3.95h4.85Z"/><path class="cls-1" d="M451.83,86.81V74.33h1.76l4,6.32a35.51,35.51,0,0,1,2.24,4.06l0,0c-.15-1.67-.19-3.19-.19-5.13V74.33h1.52V86.81h-1.63l-4-6.33a40.1,40.1,0,0,1-2.33-4.17l-.05,0c.09,1.57.13,3.08.13,5.15v5.33Z"/><path class="cls-1" d="M475.65,75.7h-3.8V74.33h9.24V75.7h-3.81V86.81h-1.63Z"/><path class="cls-1" d="M498.21,81h-4.85v4.5h5.41v1.35h-7V74.33h6.74v1.35h-5.13v3.95h4.85Z"/><path class="cls-1" d="M509.9,84.85a5.71,5.71,0,0,0,2.89.81c1.65,0,2.61-.87,2.61-2.13s-.67-1.83-2.35-2.48c-2-.72-3.3-1.78-3.3-3.54,0-1.95,1.61-3.39,4-3.39a5.67,5.67,0,0,1,2.76.61l-.45,1.31a5,5,0,0,0-2.37-.59c-1.71,0-2.35,1-2.35,1.87,0,1.17.76,1.74,2.48,2.41,2.11.82,3.19,1.83,3.19,3.67S515.62,87,512.67,87a6.45,6.45,0,0,1-3.19-.8Z"/><path class="cls-1" d="M133.78,12a67,67,0,0,1,9.94-.75c6.72,0,11.5,1.56,14.67,4.51s5.11,7.15,5.11,13-1.83,10.75-5.21,14.08-9,5.21-16,5.21a75.52,75.52,0,0,1-8.49-.43Zm4.68,32a29.55,29.55,0,0,0,4.73.27c10,0,15.42-5.59,15.42-15.37.05-8.54-4.78-14-14.67-14a26.58,26.58,0,0,0-5.48.48Z"/><path class="cls-1" d="M188.33,30.72H174.25V43.78h15.69v3.92H169.58V11.48h19.56v3.92H174.25V26.85h14.08Z"/><path class="cls-1" d="M195.38,42a16.57,16.57,0,0,0,8.38,2.36c4.78,0,7.58-2.53,7.58-6.18,0-3.39-1.93-5.32-6.83-7.2-5.91-2.1-9.57-5.16-9.57-10.26,0-5.64,4.67-9.83,11.72-9.83a16.45,16.45,0,0,1,8,1.77l-1.29,3.82a14.43,14.43,0,0,0-6.88-1.72c-4.94,0-6.83,3-6.83,5.43,0,3.39,2.2,5.05,7.2,7,6.13,2.37,9.24,5.32,9.24,10.64,0,5.59-4.14,10.43-12.68,10.43-3.49,0-7.31-1-9.24-2.31Z"/><path class="cls-1" d="M247.83,46.52a23.22,23.22,0,0,1-9.57,1.72c-10.21,0-17.9-6.45-17.9-18.33,0-11.34,7.69-19,18.92-19a19.41,19.41,0,0,1,8.6,1.61l-1.13,3.82a17,17,0,0,0-7.31-1.5c-8.49,0-14.13,5.43-14.13,14.94,0,8.87,5.11,14.56,13.92,14.56a18.71,18.71,0,0,0,7.63-1.5Z"/><path class="cls-1" d="M259.76,36.31,256,47.71h-4.84l12.31-36.22h5.64l12.36,36.22h-5l-3.87-11.39Zm11.88-3.66-3.55-10.43c-.81-2.36-1.34-4.51-1.88-6.61h-.11c-.54,2.15-1.13,4.35-1.83,6.56l-3.55,10.48Z"/><path class="cls-1" d="M286.8,12a48.75,48.75,0,0,1,9-.75c5,0,8.22.91,10.48,3a9,9,0,0,1,2.85,6.88,9.51,9.51,0,0,1-6.82,9.24v.16c2.79,1,4.46,3.55,5.32,7.31,1.18,5.05,2,8.54,2.79,9.94h-4.84c-.59-1-1.4-4.14-2.42-8.65-1.07-5-3-6.88-7.25-7h-4.41V47.71H286.8Zm4.68,16.5h4.78c5,0,8.17-2.74,8.17-6.88,0-4.68-3.39-6.72-8.33-6.77a19.27,19.27,0,0,0-4.62.43Z"/><path class="cls-1" d="M323.08,15.46h-11v-4h26.82v4H327.81V47.71h-4.73Z"/><path class="cls-1" d="M361.67,30.72H347.59V43.78h15.69v3.92H342.91V11.48h19.56v3.92H347.59V26.85h14.08Z"/><path class="cls-1" d="M386.76,47.71,374.94,11.48H380l5.64,17.84c1.56,4.89,2.9,9.3,3.87,13.54h.11c1-4.19,2.53-8.76,4.14-13.49l6.13-17.9h5l-13,36.22Z"/><path class="cls-1" d="M427.56,30.72H413.48V43.78h15.69v3.92H408.8V11.48h19.56v3.92H413.48V26.85h14.08Z"/><path class="cls-1" d="M435.25,12a48.75,48.75,0,0,1,9-.75c5,0,8.22.91,10.48,3a9,9,0,0,1,2.85,6.88,9.51,9.51,0,0,1-6.82,9.24v.16c2.79,1,4.46,3.55,5.32,7.31,1.18,5.05,2,8.54,2.79,9.94H454c-.59-1-1.4-4.14-2.42-8.65-1.07-5-3-6.88-7.25-7h-4.41V47.71h-4.68Zm4.68,16.5h4.78c5,0,8.17-2.74,8.17-6.88,0-4.68-3.39-6.72-8.33-6.77a19.27,19.27,0,0,0-4.62.43Z"/><path class="cls-1" d="M464.16,12a67,67,0,0,1,9.94-.75c6.72,0,11.5,1.56,14.67,4.51s5.11,7.15,5.11,13-1.83,10.75-5.21,14.08-9,5.21-16,5.21a75.54,75.54,0,0,1-8.49-.43Zm4.68,32a29.56,29.56,0,0,0,4.73.27c10,0,15.42-5.59,15.42-15.37.05-8.54-4.78-14-14.67-14a26.59,26.59,0,0,0-5.48.48Z"/><path class="cls-1" d="M518.71,30.72H504.63V43.78h15.69v3.92H500V11.48h19.56v3.92H504.63V26.85h14.08Z"/></g></g></svg>